HIERARCHY
ROOT newVegas:Hips
{
	OFFSET 0.000000 96.479958 0.000000
	CHANNELS 6 Xposition Yposition Zposition Xrotation Yrotation Zrotation
	JOINT newVegas:Pelvis
	{
		OFFSET 0.000000 0.000000 0.000000
		CHANNELS 3 Xrotation Yrotation Zrotation
		JOINT newVegas:LeftUpLeg
		{
			OFFSET 18.735201 -5.666702 -4.541200
			CHANNELS 3 Xrotation Yrotation Zrotation
			JOINT newVegas:LeftLeg
			{
				OFFSET -0.021200 -31.938179 0.493100
				CHANNELS 3 Xrotation Yrotation Zrotation
				JOINT newVegas:LeftFoot
				{
					OFFSET 0.021200 -31.938179 -4.336299
					CHANNELS 3 Xrotation Yrotation Zrotation
					JOINT newVegas:LeftToeBase
					{
						OFFSET 0.943001 -26.722000 15.023500
						CHANNELS 3 Xrotation Yrotation Zrotation
						End Site
						{
							OFFSET 0.000000 30.670183 0.000000
						}
					}
				}
				JOINT newVegas:Left_PantLeg
				{
					OFFSET 0.663870 -9.044666 -1.108900
					CHANNELS 3 Xrotation Yrotation Zrotation
					End Site
					{
						OFFSET 1.415995 20.635357 0.000000
					}
				}
			}
		}
		JOINT newVegas:RightUpLeg
		{
			OFFSET -18.735201 -5.666702 -4.541200
			CHANNELS 3 Xrotation Yrotation Zrotation
			JOINT newVegas:RightLeg
			{
				OFFSET 0.018946 -31.938133 0.493100
				CHANNELS 3 Xrotation Yrotation Zrotation
				JOINT newVegas:RightFoot
				{
					OFFSET -0.018946 -31.938126 -4.336299
					CHANNELS 3 Xrotation Yrotation Zrotation
					JOINT newVegas:RightToeBase
					{
						OFFSET -0.943001 -26.722004 15.023500
						CHANNELS 3 Xrotation Yrotation Zrotation
						End Site
						{
							OFFSET 0.000000 30.670187 0.000000
						}
					}
				}
				JOINT newVegas:Right_PantLeg
				{
					OFFSET -0.661674 -9.044716 -1.108900
					CHANNELS 3 Xrotation Yrotation Zrotation
					End Site
					{
						OFFSET -1.415958 20.635269 0.000000
					}
				}
			}
		}
	}
	JOINT newVegas:Spine
	{
		OFFSET 0.000000 10.199997 -0.299500
		CHANNELS 3 Xrotation Yrotation Zrotation
		JOINT newVegas:Spine1
		{
			OFFSET 0.000000 11.900002 -1.516600
			CHANNELS 3 Xrotation Yrotation Zrotation
			JOINT newVegas:Spine2
			{
				OFFSET 0.000000 13.600006 -2.842500
				CHANNELS 3 Xrotation Yrotation Zrotation
				JOINT newVegas:Neck
				{
					OFFSET 0.000000 9.624100 -2.890100
					CHANNELS 3 Xrotation Yrotation Zrotation
					JOINT newVegas:Head
					{
						OFFSET 0.000000 14.068802 -1.351900
						CHANNELS 3 Xrotation Yrotation Zrotation
						JOINT newVegas:Hair_Back
						{
							OFFSET 0.000000 3.231903 -17.524799
							CHANNELS 3 Xrotation Yrotation Zrotation
							End Site
							{
								OFFSET 0.000000 19.849884 0.000000
							}
						}
						JOINT newVegas:Hair_Front
						{
							OFFSET 0.000000 31.260406 4.573800
							CHANNELS 3 Xrotation Yrotation Zrotation
							JOINT newVegas:Hair_Front1
							{
								OFFSET 0.000000 2.284103 11.993300
								CHANNELS 3 Xrotation Yrotation Zrotation
								JOINT newVegas:Hair_Front2
								{
									OFFSET 0.000000 2.284103 11.993300
									CHANNELS 3 Xrotation Yrotation Zrotation
									End Site
									{
										OFFSET 0.000000 12.208862 0.000000
									}
								}
							}
						}
						JOINT newVegas:Jowel
						{
							OFFSET 0.000000 -7.458206 6.864100
							CHANNELS 3 Xrotation Yrotation Zrotation
							End Site
							{
								OFFSET 0.000000 19.849884 0.000000
							}
						}
					}
				}
				JOINT newVegas:LeftShoulder
				{
					OFFSET 15.263000 10.923401 -0.547700
					CHANNELS 3 Xrotation Yrotation Zrotation
					JOINT newVegas:LeftArm
					{
						OFFSET 25.438599 -2.830597 -13.032500
						CHANNELS 3 Xrotation Yrotation Zrotation
						JOINT newVegas:LeftForeArm
						{
							OFFSET 29.960503 0.000000 0.000000
							CHANNELS 3 Xrotation Yrotation Zrotation
							JOINT newVegas:LeftHand
							{
								OFFSET 27.849251 0.000000 0.000000
								CHANNELS 3 Xrotation Yrotation Zrotation
								JOINT newVegas:LeftHandThumb1
								{
									OFFSET 4.487587 -3.305161 6.305391
									CHANNELS 3 Xrotation Yrotation Zrotation
									JOINT newVegas:LeftHandThumb2
									{
										OFFSET 5.480453 -3.164139 3.164143
										CHANNELS 3 Xrotation Yrotation Zrotation
										JOINT newVegas:LeftHandThumb3
										{
											OFFSET 5.159721 -2.978973 2.978967
											CHANNELS 3 Xrotation Yrotation Zrotation
											End Site
											{
												OFFSET 2.494507 5.926697 1.738678
											}
										}
									}
								}
								JOINT newVegas:LeftHandIndex1
								{
									OFFSET 18.578728 -0.527832 5.208049
									CHANNELS 3 Xrotation Yrotation Zrotation
									JOINT newVegas:LeftHandIndex2
									{
										OFFSET 3.192009 0.000000 0.000000
										CHANNELS 3 Xrotation Yrotation Zrotation
										JOINT newVegas:LeftHandIndex3
										{
											OFFSET 3.835129 0.000000 0.000000
											CHANNELS 3 Xrotation Yrotation Zrotation
											End Site
											{
												OFFSET -0.034599 3.816971 0.371180
											}
										}
									}
								}
								JOINT newVegas:LeftHandMiddle1
								{
									OFFSET 18.476105 0.000000 0.000000
									CHANNELS 3 Xrotation Yrotation Zrotation
									JOINT newVegas:LeftHandMiddle2
									{
										OFFSET 3.324875 0.000000 0.000000
										CHANNELS 3 Xrotation Yrotation Zrotation
										JOINT newVegas:LeftHandMiddle3
										{
											OFFSET 4.596550 0.000000 0.000000
											CHANNELS 3 Xrotation Yrotation Zrotation
											End Site
											{
												OFFSET 0.057701 4.578827 0.399218
											}
										}
									}
								}
								JOINT newVegas:LeftHandRing1
								{
									OFFSET 17.732719 0.121887 -4.201567
									CHANNELS 3 Xrotation Yrotation Zrotation
									JOINT newVegas:LeftHandRing2
									{
										OFFSET 2.733170 0.000000 0.000000
										CHANNELS 3 Xrotation Yrotation Zrotation
										JOINT newVegas:LeftHandRing3
										{
											OFFSET 3.178268 0.000000 0.000000
											CHANNELS 3 Xrotation Yrotation Zrotation
											End Site
											{
												OFFSET 0.119102 3.170624 0.185394
											}
										}
									}
								}
								JOINT newVegas:LeftHandPinky1
								{
									OFFSET 15.989624 -0.606689 -7.535461
									CHANNELS 3 Xrotation Yrotation Zrotation
									JOINT newVegas:LeftHandPinky2
									{
										OFFSET 2.538986 0.000000 0.000000
										CHANNELS 3 Xrotation Yrotation Zrotation
										JOINT newVegas:LeftHandPinky3
										{
											OFFSET 2.593102 0.000000 0.000000
											CHANNELS 3 Xrotation Yrotation Zrotation
											End Site
											{
												OFFSET -0.150902 2.584198 0.152708
											}
										}
									}
								}
							}
							JOINT newVegas:Left_Sleeve
							{
								OFFSET 0.267448 -0.649796 0.577675
								CHANNELS 3 Xrotation Yrotation Zrotation
								End Site
								{
									OFFSET 0.000000 15.991241 0.000000
								}
							}
							JOINT newVegas:Left_CapeC
							{
								OFFSET 15.715958 -8.608795 -6.935905
								CHANNELS 3 Xrotation Yrotation Zrotation
								JOINT newVegas:Left_CapeC1
								{
									OFFSET 0.000000 -8.688499 0.000000
									CHANNELS 3 Xrotation Yrotation Zrotation
									End Site
									{
										OFFSET 0.000000 8.688499 0.000000
									}
								}
							}
						}
						JOINT newVegas:Left_CapeB
						{
							OFFSET 26.118385 -8.608795 -7.079235
							CHANNELS 3 Xrotation Yrotation Zrotation
							JOINT newVegas:Left_CapeB1
							{
								OFFSET 0.000000 -8.688499 0.000000
								CHANNELS 3 Xrotation Yrotation Zrotation
								End Site
								{
									OFFSET 0.000000 8.688499 0.000000
								}
							}
						}
						JOINT newVegas:Left_CapeA
						{
							OFFSET 5.115639 -8.608795 -10.395809
							CHANNELS 3 Xrotation Yrotation Zrotation
							JOINT newVegas:Left_CapeA1
							{
								OFFSET 0.000000 -8.688499 0.000000
								CHANNELS 3 Xrotation Yrotation Zrotation
								End Site
								{
									OFFSET 0.000000 8.688499 0.000000
								}
							}
						}
					}
				}
				JOINT newVegas:RightShoulder
				{
					OFFSET -15.263000 10.923401 -0.547700
					CHANNELS 3 Xrotation Yrotation Zrotation
					JOINT newVegas:RightArm
					{
						OFFSET -25.438599 -2.830597 -13.032500
						CHANNELS 3 Xrotation Yrotation Zrotation
						JOINT newVegas:RightForeArm
						{
							OFFSET -29.960503 0.000000 0.000000
							CHANNELS 3 Xrotation Yrotation Zrotation
							JOINT newVegas:RightHand
							{
								OFFSET -27.849251 0.000000 0.000000
								CHANNELS 3 Xrotation Yrotation Zrotation
								JOINT newVegas:RightHandThumb1
								{
									OFFSET -4.487587 -3.305161 6.305391
									CHANNELS 3 Xrotation Yrotation Zrotation
									JOINT newVegas:RightHandThumb2
									{
										OFFSET -5.480453 -3.164139 3.164143
										CHANNELS 3 Xrotation Yrotation Zrotation
										JOINT newVegas:RightHandThumb3
										{
											OFFSET -5.159721 -2.978973 2.978967
											CHANNELS 3 Xrotation Yrotation Zrotation
											End Site
											{
												OFFSET -2.494507 5.926697 1.738678
											}
										}
									}
								}
								JOINT newVegas:RightHandIndex1
								{
									OFFSET -18.578728 -0.527832 5.208049
									CHANNELS 3 Xrotation Yrotation Zrotation
									JOINT newVegas:RightHandIndex2
									{
										OFFSET -3.192009 0.000000 0.000000
										CHANNELS 3 Xrotation Yrotation Zrotation
										JOINT newVegas:RightHandIndex3
										{
											OFFSET -3.835129 0.000000 0.000000
											CHANNELS 3 Xrotation Yrotation Zrotation
											End Site
											{
												OFFSET 0.034599 3.816971 0.371180
											}
										}
									}
								}
								JOINT newVegas:RightHandMiddle1
								{
									OFFSET -18.476105 0.000000 0.000000
									CHANNELS 3 Xrotation Yrotation Zrotation
									JOINT newVegas:RightHandMiddle2
									{
										OFFSET -3.324875 0.000000 0.000000
										CHANNELS 3 Xrotation Yrotation Zrotation
										JOINT newVegas:RightHandMiddle3
										{
											OFFSET -4.596550 0.000000 0.000000
											CHANNELS 3 Xrotation Yrotation Zrotation
											End Site
											{
												OFFSET -0.057701 4.578827 0.399218
											}
										}
									}
								}
								JOINT newVegas:RightHandRing1
								{
									OFFSET -17.732719 0.121887 -4.201567
									CHANNELS 3 Xrotation Yrotation Zrotation
									JOINT newVegas:RightHandRing2
									{
										OFFSET -2.733170 0.000000 0.000000
										CHANNELS 3 Xrotation Yrotation Zrotation
										JOINT newVegas:RightHandRing3
										{
											OFFSET -3.178268 0.000000 0.000000
											CHANNELS 3 Xrotation Yrotation Zrotation
											End Site
											{
												OFFSET -0.119102 3.170624 0.185394
											}
										}
									}
								}
								JOINT newVegas:RightHandPinky1
								{
									OFFSET -15.989624 -0.606689 -7.535461
									CHANNELS 3 Xrotation Yrotation Zrotation
									JOINT newVegas:RightHandPinky2
									{
										OFFSET -2.538986 0.000000 0.000000
										CHANNELS 3 Xrotation Yrotation Zrotation
										JOINT newVegas:RightHandPinky3
										{
											OFFSET -2.593102 0.000000 0.000000
											CHANNELS 3 Xrotation Yrotation Zrotation
											End Site
											{
												OFFSET 0.150902 2.584198 0.152708
											}
										}
									}
								}
							}
							JOINT newVegas:Right_CapeC
							{
								OFFSET -15.715958 -8.608795 -6.935905
								CHANNELS 3 Xrotation Yrotation Zrotation
								JOINT newVegas:Right_CapeC1
								{
									OFFSET 0.000000 -8.688499 0.000000
									CHANNELS 3 Xrotation Yrotation Zrotation
									End Site
									{
										OFFSET 0.000000 8.688499 0.000000
									}
								}
							}
							JOINT newVegas:Right_Sleeve
							{
								OFFSET -0.267448 -0.649994 0.577675
								CHANNELS 3 Xrotation Yrotation Zrotation
								End Site
								{
									OFFSET 0.000000 15.991302 0.000000
								}
							}
						}
						JOINT newVegas:Right_CapeA
						{
							OFFSET -5.115540 -8.608795 -10.395824
							CHANNELS 3 Xrotation Yrotation Zrotation
							JOINT newVegas:Right_CapeA1
							{
								OFFSET 0.000000 -8.688499 0.000000
								CHANNELS 3 Xrotation Yrotation Zrotation
								End Site
								{
									OFFSET 0.000000 8.688499 0.000000
								}
							}
						}
						JOINT newVegas:Right_CapeB
						{
							OFFSET -26.118187 -8.608795 -7.079266
							CHANNELS 3 Xrotation Yrotation Zrotation
							JOINT newVegas:Right_CapeB1
							{
								OFFSET 0.000000 -8.688499 0.000000
								CHANNELS 3 Xrotation Yrotation Zrotation
								End Site
								{
									OFFSET 0.000000 8.688499 0.000000
								}
							}
						}
					}
				}
				JOINT newVegas:Left_Collar
				{
					OFFSET 18.625099 8.655502 8.828100
					CHANNELS 3 Xrotation Yrotation Zrotation
					JOINT newVegas:Left_Collar1
					{
						OFFSET 14.783401 10.540405 -1.259500
						CHANNELS 3 Xrotation Yrotation Zrotation
						End Site
						{
							OFFSET 0.000000 18.199875 0.000000
						}
					}
				}
				JOINT newVegas:Collar_Back
				{
					OFFSET 0.000000 15.630707 -20.132601
					CHANNELS 3 Xrotation Yrotation Zrotation
					End Site
					{
						OFFSET 0.000000 22.523010 0.000000
					}
				}
				JOINT newVegas:Left_Peck
				{
					OFFSET 17.239599 -5.132599 25.482599
					CHANNELS 3 Xrotation Yrotation Zrotation
					End Site
					{
						OFFSET 0.000000 22.523010 0.000000
					}
				}
				JOINT newVegas:Right_Peck
				{
					OFFSET -17.239599 -5.132202 25.482599
					CHANNELS 3 Xrotation Yrotation Zrotation
					End Site
					{
						OFFSET 0.000000 22.523010 0.000000
					}
				}
				JOINT newVegas:Right_Collar
				{
					OFFSET -18.625099 8.655792 8.828100
					CHANNELS 3 Xrotation Yrotation Zrotation
					JOINT newVegas:Right_Collar1
					{
						OFFSET -14.783401 10.539993 -1.259500
						CHANNELS 3 Xrotation Yrotation Zrotation
						End Site
						{
							OFFSET 0.000000 18.199631 0.000000
						}
					}
				}
			}
		}
		JOINT newVegas:Belly
		{
			OFFSET 0.000000 -6.540398 9.014299
			CHANNELS 3 Xrotation Yrotation Zrotation
			End Site
			{
				OFFSET 0.000000 11.566666 0.000000
			}
		}
	}
	JOINT newVegas:ElvisFacialAnim_Joint
	{
		OFFSET 1.000000 -95.330101 -8.825800
		CHANNELS 3 Xrotation Yrotation Zrotation
		End Site
		{
			OFFSET 0.000000 35.315800 0.000000
		}
	}
}
MOTION
Frames: 4
Frame Time: 0.033333
-0.589648 83.477051 4.815643 23.765353 -8.634872 2.200312 0.000000 0.000000 -0.000000 -87.039034 10.250013 5.437841 99.591316 0.839793 2.678728 18.941732 11.198460 5.742430 0.000000 0.000000 0.000000 -0.000002 0.000000 -0.000000 -30.153605 7.419240 6.419796 51.819709 -4.702919 -0.323707 -32.139800 0.087868 -0.537022 -0.000000 -0.000000 -0.000000 -0.000003 -0.000001 0.000000 14.662119 6.264238 -1.254854 2.274538 1.660202 -0.654411 2.266973 1.669754 -0.701171 0.567546 -0.333281 -0.173582 0.567536 -0.333281 -0.173581 -0.000002 -0.000000 0.000000 0.567523 -0.333279 -0.173581 0.567647 -0.333282 -0.173580 -0.000003 0.000000 -0.000000 -0.000002 -0.000000 0.000000 0.486554 -21.250689 -10.319637 -40.910326 9.118349 -33.322458 -0.000188 -104.322971 -0.000174 -125.839706 -11.331517 16.186531 49.846157 -30.419938 36.849274 -29.417901 38.849641 -18.120248 0.000001 -0.000002 -0.000001 -3.690327 0.060939 -40.481476 5.233375 5.818492 -83.929549 -0.000001 -0.000001 0.000002 -0.924827 4.524246 -52.894976 4.225967 5.621596 -73.847869 0.000001 0.000000 -0.000003 0.980889 6.427736 -63.300609 2.608583 4.873022 -56.300443 -0.000000 0.000001 0.000002 1.058961 7.480340 -80.533695 1.457335 3.867726 -41.279648 0.000000 -0.000003 0.000001 0.000001 0.000000 -0.000000 0.000001 0.000000 -0.000000 0.000000 0.000000 0.000000 -0.000000 0.000001 0.000001 -0.000000 0.000001 -0.000001 -0.000000 0.000001 0.000001 -0.000001 0.000001 0.000001 5.201559 9.813707 -2.170360 -23.421653 50.417591 30.004328 0.000343 92.109090 -0.000186 -44.627998 9.570613 8.582669 61.095141 38.092412 -9.036331 48.122938 -4.778411 30.511544 0.000001 -0.000001 0.000001 -0.566842 -2.002554 25.109406 6.127437 -4.419472 108.421883 -0.000001 0.000000 -0.000001 3.231523 -6.873591 56.815071 6.111104 -4.424846 108.210496 0.000001 0.000000 0.000005 2.093368 -6.401694 75.092794 5.511613 -4.578263 100.583381 0.000001 0.000001 0.000002 -0.919607 -5.233741 70.499942 3.637736 -4.544436 77.342487 0.000001 -0.000000 0.000004 0.000003 0.000004 0.000003 0.000003 0.000003 0.000000 0.000003 0.000003 0.000003 -0.000000 0.000003 -0.000002 -0.000000 0.000003 -0.000001 -0.000000 0.000003 -0.000002 0.000000 0.000003 0.000001 -0.000000 -0.000000 -0.000000 -0.000000 -0.000000 -0.000000 -0.000000 -0.000000 -0.000000 -0.000000 -0.000000 -0.000000 -0.000000 -0.000000 -0.000000 -0.000000 -0.000000 -0.000000 -0.000000 -0.000000 -0.000000 -0.000000 0.000000 0.000000 0.000000 0.000000 -0.000000 
-0.112802 85.058105 15.799204 20.881973 -5.765127 2.718683 0.000000 0.000000 -0.000000 -85.894492 8.596132 2.742474 84.033060 -1.481235 2.475475 15.809304 11.638234 2.793666 0.000001 -0.000000 -0.000000 0.000000 -0.000000 -0.000000 -19.022861 6.290266 2.978284 45.449096 -2.911841 -0.317791 -19.552323 -2.106002 -0.366617 -0.000001 -0.000000 0.000000 0.000002 -0.000000 0.000000 14.319697 6.138947 -2.854732 2.304416 1.756155 -0.774273 2.294590 1.764697 -0.823712 0.438854 -0.178559 -0.018931 0.438883 -0.178557 -0.018931 -0.000000 -0.000000 -0.000000 0.438916 -0.178562 -0.018930 0.438801 -0.178547 -0.018934 -0.000003 0.000000 -0.000000 -0.000000 -0.000000 -0.000000 0.438607 -21.121692 -10.568492 -38.699821 10.187754 -31.165433 0.000005 -103.747664 0.000011 -127.430279 -10.951837 14.163770 48.330009 -30.309255 35.898088 -28.679080 37.871292 -18.070007 0.000000 0.000004 -0.000001 -3.711525 0.151384 -41.015033 5.190260 5.813733 -83.504021 0.000001 0.000000 0.000001 -0.862783 4.604389 -53.265585 4.204243 5.615306 -73.625983 0.000000 -0.000000 -0.000000 1.057622 6.481803 -63.622673 2.595495 4.864323 -56.146194 0.000000 0.000001 0.000002 1.181141 7.500518 -80.537008 1.463144 3.874339 -41.365876 -0.000000 -0.000005 0.000001 0.000003 0.000000 -0.000000 0.000003 0.000000 -0.000000 0.000003 -0.000000 -0.000000 -0.000000 -0.000001 -0.000002 -0.000000 -0.000000 -0.000004 -0.000000 -0.000001 -0.000002 -0.000000 -0.000001 -0.000002 5.080090 12.737540 -4.219677 -21.933141 48.901839 32.274321 -0.000077 91.604209 -0.000076 -43.042230 11.133102 7.034148 61.226772 37.552076 -9.346159 48.240106 -4.861664 30.490733 0.000001 -0.000003 0.000001 -0.780484 -1.511560 24.857741 6.115577 -4.423394 108.268143 -0.000001 0.000001 0.000001 3.230262 -6.833025 58.425028 6.115035 -4.423586 108.261039 0.000001 -0.000001 0.000003 2.500237 -6.530470 76.189059 5.530714 -4.574671 100.822656 0.000000 0.000001 -0.000001 -0.419967 -5.488935 71.624164 3.755215 -4.569179 78.821011 0.000001 0.000002 -0.000001 -0.000002 -0.000000 -0.000000 -0.000002 0.000000 0.000001 -0.000002 -0.000000 0.000001 -0.000000 0.000001 0.000001 0.000000 0.000000 0.000003 -0.000000 0.000001 0.000001 0.000001 0.000000 0.000004 0.000002 -0.000000 -0.000000 0.000002 -0.000000 -0.000000 0.000002 -0.000000 -0.000000 0.000002 -0.000000 -0.000000 0.000002 -0.000000 -0.000000 0.000002 -0.000000 -0.000000 0.000002 -0.000000 -0.000000 -0.000001 0.000000 0.000000 0.000000 0.000000 -0.000000 
0.295695 86.569550 26.188589 17.991106 -2.881441 3.404040 0.000000 0.000000 -0.000000 -77.361065 7.389769 -0.790527 62.710911 -1.954874 2.209659 12.121336 11.174798 0.784328 -0.000000 -0.000000 0.000000 -0.000000 0.000000 0.000000 -12.230897 3.499833 0.240820 42.256564 1.816999 -0.272967 -2.318982 -5.778967 0.390856 -0.000002 0.000000 -0.000000 -0.000001 -0.000000 -0.000001 13.980961 5.991390 -4.481460 2.335991 1.858659 -0.896822 2.323821 1.866155 -0.949078 0.307254 -0.016345 0.140930 0.307263 -0.016342 0.140928 0.000000 -0.000000 -0.000000 0.307254 -0.016350 0.140930 0.307269 -0.016344 0.140931 -0.000000 0.000000 -0.000000 0.000000 -0.000000 -0.000000 0.391214 -20.991340 -10.820060 -33.693340 10.116273 -31.104869 0.000687 -102.755914 0.000669 -130.454250 -12.116429 11.042153 46.815988 -30.186151 34.955423 -27.951610 36.894742 -17.998979 0.000000 -0.000000 -0.000003 -3.731891 0.242035 -41.548594 5.147179 5.808716 -83.078507 -0.000000 -0.000001 -0.000000 -0.799972 4.683861 -53.636369 4.182543 5.608901 -73.404057 -0.000000 -0.000000 -0.000000 1.134854 6.535200 -63.944866 2.582429 4.855552 -55.991972 0.000000 -0.000001 0.000001 1.303350 7.520713 -80.540402 1.468976 3.880930 -41.452107 0.000001 -0.000002 -0.000001 0.000003 -0.000000 -0.000000 0.000003 -0.000000 -0.000000 0.000003 -0.000000 -0.000000 -0.000000 0.000000 0.000003 0.000000 0.000000 0.000003 -0.000000 0.000000 0.000003 -0.000000 -0.000000 0.000003 4.906917 11.518173 -5.921570 -21.484905 49.086128 35.907568 0.001681 91.675113 -0.001840 -42.015974 9.754092 6.850288 61.457892 37.009609 -9.755256 48.327557 -4.925180 30.473176 -0.000000 -0.000003 -0.000003 -0.987897 -1.022277 24.607848 6.070508 -4.437982 107.684715 -0.000001 -0.000001 0.000002 3.228221 -6.796767 60.078938 6.119335 -4.422136 108.317081 0.000000 -0.000000 0.000002 2.916994 -6.647128 77.323718 5.551870 -4.570588 101.087899 0.000000 -0.000001 -0.000000 0.093796 -5.729402 72.781512 3.877365 -4.591541 80.350578 0.000002 0.000002 -0.000000 -0.000001 -0.000000 -0.000000 -0.000001 -0.000000 0.000001 -0.000001 -0.000001 -0.000001 0.000000 0.000000 0.000002 -0.000000 0.000000 0.000003 0.000000 0.000000 0.000002 0.000000 0.000000 0.000005 -0.000002 -0.000000 0.000001 -0.000002 -0.000000 0.000001 -0.000002 -0.000000 0.000001 -0.000002 -0.000000 0.000001 -0.000002 -0.000000 0.000001 -0.000002 -0.000000 0.000001 -0.000002 -0.000000 0.000001 0.000000 -0.000000 -0.000000 0.000000 0.000000 -0.000000 
0.536530 87.346710 36.037338 15.061358 -0.001765 4.386830 -0.000002 -0.000000 -0.000000 -67.594564 3.448528 -5.078120 42.077428 1.616736 1.621375 8.982249 7.372282 -0.765620 -0.000000 -0.000000 0.000000 -0.000000 -0.000000 0.000000 -9.257703 -4.067198 -3.333211 39.675968 1.955823 -5.292664 14.549758 -0.845536 9.692854 0.000002 0.000000 -0.000000 0.000004 0.000000 -0.000000 13.652987 5.740267 -6.239870 2.360855 1.924682 -1.004537 2.346776 1.931330 -1.058838 0.193763 0.116147 0.280899 0.193774 0.116148 0.280899 0.000000 0.000000 -0.000000 0.193772 0.116148 0.280899 0.193784 0.116147 0.280900 0.000001 0.000001 -0.000000 0.000000 0.000000 -0.000000 0.344522 -20.859857 -11.073902 -29.178233 8.724204 -30.750314 -0.000135 -103.675312 -0.000139 -132.364244 -15.242112 13.326234 45.304440 -30.050913 34.021585 -27.234404 35.920303 -17.907955 0.000002 -0.000000 -0.000003 -3.748894 0.335625 -42.081748 5.104130 5.803365 -82.652987 0.000001 0.000001 0.000003 -0.736421 4.762560 -54.007341 4.160861 5.602438 -73.182144 -0.000001 -0.000001 -0.000001 1.212526 6.587828 -64.267190 2.569394 4.846760 -55.837756 -0.000001 -0.000001 -0.000000 1.425235 7.540602 -80.540177 1.474823 3.887510 -41.538318 -0.000001 -0.000001 -0.000004 -0.000001 0.000000 0.000000 -0.000001 0.000000 0.000000 -0.000002 -0.000000 0.000000 0.000000 -0.000001 0.000002 0.000000 -0.000001 -0.000000 0.000000 -0.000001 0.000002 -0.000000 -0.000001 0.000002 4.805593 10.454565 -3.848387 -18.141833 47.919914 33.969307 0.000674 94.126236 -0.000620 -45.230018 5.720987 7.679897 61.772443 36.463692 -10.246102 48.389182 -4.970766 30.459669 0.000002 0.000000 0.000001 -1.186367 -0.540833 24.359112 5.995410 -4.461154 106.717007 -0.000000 -0.000000 0.000002 3.225095 -6.765141 61.762197 6.123944 -4.420617 108.376784 0.000001 -0.000000 0.000000 3.340706 -6.749908 78.484727 5.574364 -4.566134 101.370464 -0.000000 0.000001 -0.000000 0.618763 -5.952570 73.962657 4.002814 -4.611060 81.914172 -0.000001 0.000003 0.000001 -0.000002 0.000000 -0.000000 -0.000002 -0.000000 0.000000 -0.000002 0.000000 -0.000000 -0.000000 -0.000001 -0.000003 -0.000001 -0.000001 -0.000001 -0.000000 -0.000001 -0.000003 -0.000000 -0.000001 0.000001 0.000000 0.000000 -0.000000 0.000000 0.000000 -0.000000 0.000000 0.000000 -0.000000 0.000000 0.000000 -0.000000 0.000000 0.000000 -0.000000 0.000000 0.000000 -0.000000 0.000000 0.000000 -0.000000 0.000001 0.000000 -0.000000 -0.000002 -0.000000 -0.000000 
